<svg xmlns="http://www.w3.org/2000/svg" width="16" height="16" viewBox="0 0 16 16" fill="none" aria-labelledby="search">
  <title id="search">Search</title>
  <path fill-rule="evenodd" clip-rule="evenodd" d="M9.98391 9.89597C9.49073 10.3855 8.90525 10.7738 8.26088 11.0387C7.61651 11.3037 6.92589 11.44 6.22843 11.44C5.53097 11.44 4.84034 11.3037 4.19597 11.0387C3.55161 10.7738 2.96612 10.3855 2.47294 9.89597C1.97977 9.40645 1.58856 8.8253 1.32165 8.18571C1.05474 7.54611 0.91737 6.8606 0.91737 6.16831C0.91737 5.47602 1.05474 4.7905 1.32165 4.15091C1.58856 3.51132 1.97977 2.93017 2.47294 2.44064C3.46896 1.452 4.81985 0.896593 6.22843 0.896593C7.63701 0.896594 8.9879 1.452 9.98391 2.44064C10.9799 3.42928 11.5395 4.77016 11.5395 6.16831C11.5395 7.56645 10.9799 8.90733 9.98391 9.89597ZM10.2226 10.9168C8.98745 11.9436 7.39931 12.4551 5.79206 12.3437C4.18481 12.2324 2.68364 11.5069 1.60411 10.3197C0.524582 9.13257 -0.0492236 7.57623 0.00331409 5.97786C0.0558517 4.37948 0.730641 2.86357 1.88583 1.74879C3.04103 0.634005 4.58665 0.00717329 6.19779 6.11853e-05C7.80893 -0.00705092 9.36011 0.606111 10.5252 1.71065C11.6904 2.81519 12.3787 4.32509 12.4456 5.92293C12.5124 7.52078 11.9526 9.08213 10.8838 10.2788L15.8421 15.2004C15.8898 15.2416 15.9285 15.2921 15.9556 15.3488C15.9828 15.4056 15.9978 15.4672 15.9998 15.53C16.0018 15.5928 15.9907 15.6553 15.9672 15.7136C15.9437 15.7719 15.9083 15.8247 15.8632 15.8688C15.8182 15.9129 15.7644 15.9473 15.7054 15.9698C15.6463 15.9922 15.5832 16.0024 15.52 15.9995C15.4568 15.9967 15.3949 15.9809 15.3381 15.9531C15.2814 15.9254 15.231 15.8863 15.1902 15.8384L10.2226 10.9168Z" fill="currentColor"></path>
</svg>